<svg 
 xmlns="http://www.w3.org/2000/svg"
 xmlns:xlink="http://www.w3.org/1999/xlink"
 width="28px" height="21px">
<path fill-rule="evenodd"  fill="rgb(255, 255, 255)"
 d="M26.249,11.054 L26.134,11.054 L24.207,19.270 C23.968,20.289 23.031,21.002 21.929,21.002 L6.070,21.002 C4.968,21.002 4.032,20.289 3.792,19.271 L1.865,11.054 L1.750,11.054 C0.784,11.054 -0.000,10.311 -0.000,9.396 L-0.000,8.291 C-0.000,7.377 0.784,6.633 1.750,6.633 L5.833,6.633 L5.833,7.738 L1.750,7.738 C1.428,7.738 1.167,7.986 1.167,8.291 L1.167,9.396 C1.167,9.701 1.428,9.949 1.750,9.949 L5.250,9.949 L5.250,11.054 L3.060,11.054 L4.931,19.031 C5.051,19.540 5.519,19.896 6.070,19.896 L21.929,19.896 C22.480,19.896 22.948,19.540 23.068,19.031 L24.939,11.054 L22.750,11.054 L22.750,9.949 L26.249,9.949 C26.571,9.949 26.833,9.701 26.833,9.396 L26.833,8.291 C26.833,7.986 26.571,7.738 26.249,7.738 L22.166,7.738 L22.166,6.633 L26.249,6.633 C27.214,6.633 28.000,7.377 28.000,8.291 L28.000,9.396 C28.000,10.311 27.214,11.054 26.249,11.054 ZM21.114,11.617 C21.430,11.677 21.635,11.968 21.572,12.268 L20.405,17.794 C20.349,18.057 20.106,18.238 19.834,18.238 C19.795,18.238 19.757,18.235 19.718,18.227 C19.402,18.168 19.198,17.876 19.261,17.577 L20.428,12.051 C20.491,11.752 20.797,11.558 21.114,11.617 ZM21.216,9.357 C21.145,9.384 21.072,9.397 21.000,9.397 C20.768,9.397 20.549,9.265 20.457,9.049 L16.958,0.760 C16.838,0.476 16.983,0.155 17.283,0.041 C17.582,-0.071 17.922,0.066 18.041,0.349 L21.541,8.639 C21.661,8.922 21.515,9.243 21.216,9.357 ZM17.558,11.609 C17.878,11.640 18.112,11.910 18.080,12.214 L17.497,17.741 C17.466,18.025 17.213,18.238 16.917,18.238 C16.897,18.238 16.878,18.237 16.858,18.235 C16.537,18.205 16.304,17.934 16.336,17.631 L16.919,12.104 C16.951,11.801 17.236,11.580 17.558,11.609 ZM14.583,12.159 L14.583,17.686 C14.583,17.991 14.322,18.238 13.999,18.238 C13.677,18.238 13.416,17.991 13.416,17.686 L13.416,12.159 C13.416,11.854 13.677,11.607 13.999,11.607 C14.322,11.607 14.583,11.854 14.583,12.159 ZM11.080,12.104 L11.663,17.631 C11.695,17.934 11.462,18.205 11.141,18.235 C11.121,18.237 11.102,18.238 11.082,18.238 C10.786,18.238 10.533,18.025 10.502,17.741 L9.919,12.214 C9.887,11.910 10.121,11.640 10.441,11.609 C10.762,11.581 11.048,11.801 11.080,12.104 ZM9.333,6.633 L18.666,6.633 L18.666,7.738 L9.333,7.738 L9.333,6.633 ZM6.885,11.617 C7.203,11.558 7.509,11.752 7.571,12.051 L8.738,17.577 C8.801,17.876 8.596,18.168 8.281,18.227 C8.242,18.235 8.204,18.238 8.166,18.238 C7.893,18.238 7.650,18.057 7.594,17.794 L6.428,12.268 C6.364,11.968 6.569,11.677 6.885,11.617 ZM7.541,9.049 C7.450,9.265 7.231,9.397 6.999,9.397 C6.927,9.397 6.854,9.384 6.783,9.357 C6.483,9.243 6.338,8.922 6.458,8.639 L9.958,0.349 C10.077,0.066 10.416,-0.072 10.716,0.041 C11.016,0.155 11.161,0.476 11.041,0.760 L7.541,9.049 Z"/>
</svg>