<svg 
 xmlns="http://www.w3.org/2000/svg"
 xmlns:xlink="http://www.w3.org/1999/xlink"
 width="25px" height="28px">
<path fill-rule="evenodd"  fill="rgb(255, 255, 255)"
 d="M24.812,13.828 L19.457,19.079 L18.616,18.254 L22.955,14.000 L12.493,14.000 L12.493,12.832 L22.955,12.832 L18.616,8.578 L19.457,7.753 L24.812,13.004 C25.044,13.232 25.044,13.601 24.812,13.828 ZM16.062,4.083 L10.113,4.083 L10.113,23.916 L16.062,23.916 L16.062,15.750 L17.252,15.750 L17.252,24.499 C17.252,24.822 16.986,25.083 16.657,25.083 L10.113,25.083 L10.113,27.416 C10.113,27.739 9.847,27.999 9.518,27.999 L8.924,27.999 C8.856,27.999 8.788,27.988 8.724,27.965 L0.395,25.048 C0.158,24.966 0.000,24.746 0.000,24.499 L0.000,3.499 C0.000,3.253 0.158,3.033 0.395,2.950 L8.724,0.034 C8.788,0.011 8.856,-0.001 8.924,-0.001 L9.518,-0.001 C9.847,-0.001 10.113,0.260 10.113,0.583 L10.113,2.916 L16.657,2.916 C16.986,2.916 17.252,3.177 17.252,3.499 L17.252,11.083 L16.062,11.083 L16.062,4.083 ZM8.924,1.202 L1.190,3.911 L1.190,24.088 L8.924,26.797 L8.924,1.202 ZM7.734,14.583 L6.544,14.583 L6.544,12.249 L7.734,12.249 L7.734,14.583 Z"/>
</svg>