<?xml version="1.0" encoding="UTF-8"?>
<svg width="50px" height="50px" viewBox="0 0 50 50" version="1.1" xmlns="http://www.w3.org/2000/svg" xmlns:xlink="http://www.w3.org/1999/xlink">
    <!-- Generator: Sketch 55.2 (78181) - https://sketchapp.com -->
    <title>telegram_ico</title>
    <desc>Created with Sketch.</desc>
    <g id="Page-1" stroke="none" stroke-width="1" fill="none" fill-rule="evenodd">
        <g id="Futer_Mobile" transform="translate(-97.000000, -222.000000)">
            <g id="Group-Copy" transform="translate(97.000000, 222.000000)">
                <g id="telegram_ico">
                    <circle id="Oval" fill="#B6B6B6" fill-rule="nonzero" cx="25" cy="25" r="25"></circle>
                    <path d="M25.8188889,30.9744444 C24.8561111,31.9122222 23.9016667,32.8344444 22.9561111,33.7638889 C22.6255556,34.0894444 22.2538889,34.2694444 21.7794444,34.2444444 C21.4555556,34.2272222 21.2744444,34.085 21.175,33.7777778 C20.4505556,31.5294444 19.7155556,29.2866667 18.995,27.0361111 C18.925,26.8177778 18.8216667,26.7116667 18.6005556,26.6433333 C16.8938889,26.1222222 15.1905556,25.5888889 13.49,25.0483333 C13.2283333,24.965 12.9644444,24.8561111 12.7383333,24.7022222 C12.3888889,24.4655556 12.3377778,24.0794444 12.6511111,23.8016667 C12.9405556,23.5455556 13.2861111,23.3222222 13.645,23.18 C15.7311111,22.3533333 17.8283333,21.5533333 19.9222222,20.7461111 C25.2361111,18.6944444 30.55,16.6444444 35.8644444,14.5927778 C36.875,14.2022222 37.6516667,14.7522222 37.5466667,15.845 C37.4794444,16.5438889 37.2983333,17.2316667 37.1522222,17.9216667 C35.9983333,23.37 34.8433333,28.8188889 33.6833333,34.2661111 C33.4077778,35.5594444 32.4994444,35.8972222 31.435,35.1122222 C29.6522222,33.7983333 27.8711111,32.48 26.0894444,31.1638889 C26.0044444,31.1022222 25.9161111,31.0427778 25.8188889,30.9744444 Z M21.8172222,32.6288889 C21.8372222,32.6233333 21.8572222,32.6177778 21.8772222,32.6127778 C21.8883333,32.5616667 21.9044444,32.5116667 21.9088889,32.4611111 C22.0233333,31.2261111 22.1444444,29.9916667 22.2438889,28.7544444 C22.2661111,28.4788889 22.3605556,28.2833333 22.5677778,28.0977778 C24.2111111,26.6283333 25.8444444,25.1494444 27.4811111,23.6738889 C29.2927778,22.04 31.105,20.4077778 32.91,18.7672222 C33.0216667,18.6661111 33.0683333,18.4938889 33.145,18.3538889 C32.975,18.3355556 32.7927778,18.2672222 32.6383333,18.3072222 C32.4277778,18.3616667 32.2283333,18.4838889 32.0405556,18.6022222 C28.0422222,21.1205556 24.0472222,23.6433333 20.0461111,26.1566667 C19.82,26.2988889 19.7777778,26.4194444 19.8638889,26.6677778 C20.1588889,27.515 20.4272222,28.37 20.7055556,29.2233333 C21.0761111,30.3588889 21.4466667,31.4938889 21.8172222,32.6288889 Z" id="Shape" fill="#FFFFFF"></path>
                </g>
            </g>
        </g>
    </g>
</svg>